<svg width="24" height="24" viewBox="0 0 24 24" fill="none" xmlns="http://www.w3.org/2000/svg">
<path fill-rule="evenodd" clip-rule="evenodd" d="M6.68366 21.2233C6.19142 21.7236 6.19142 22.5243 6.68366 23.0246C7.17589 23.525 7.96348 23.525 8.45572 23.0246C8.94796 22.5243 8.94796 21.7236 8.45572 21.2233C7.96348 20.7229 7.17589 20.7229 6.68366 21.2233ZM17.3161 3.37659C17.8084 2.87621 17.8084 2.07561 17.3161 1.57523C16.8239 1.07486 16.0363 1.07486 15.5441 1.57523C15.0518 2.07561 15.0518 2.87621 15.5441 3.37659C16.0363 3.87696 16.8239 3.87696 17.3161 3.37659ZM15.1012 4.72758L11.9673 7.91331C11.9837 7.91331 11.9837 7.91331 12.0001 7.91331C14.3956 7.91331 16.3154 9.88145 16.3154 12.3166C16.3154 13.5342 15.8231 14.635 15.052 15.4189L10.2444 20.3059C10.8187 20.4394 11.393 20.5061 12.0001 20.5061C16.463 20.5061 20.0728 16.8367 20.0728 12.2999C20.0728 8.8807 18.0218 5.96184 15.1012 4.72758ZM12 16.7033C9.60441 16.7033 7.68467 14.7352 7.68467 12.3C7.68467 11.0824 8.17691 9.98162 8.94809 9.19769V9.19769L13.7556 4.29401C13.1813 4.16058 12.6071 4.09386 12 4.09386C7.537 4.09386 3.92725 7.76328 3.92725 12.3C3.92725 15.7193 5.97824 18.6381 8.89887 19.8724L12.0328 16.6866C12.0164 16.6866 12 16.7033 12 16.7033Z" fill="#0F75DB"/>
</svg>
